<?xml version="1.0" encoding="utf-8"?>
<!-- Generator: Adobe Illustrator 22.1.0, SVG Export Plug-In . SVG Version: 6.00 Build 0)  -->
<svg version="1.1" id="Layer_1" xmlns="http://www.w3.org/2000/svg" xmlns:xlink="http://www.w3.org/1999/xlink" x="0px" y="0px"
	 viewBox="0 0 100 100" style="enable-background:new 0 0 100 100;" xml:space="preserve">
<path d="M41.3,50c0-4.8,3.9-8.7,8.7-8.7c4.8,0,8.7,3.9,8.7,8.7c0,4.8-3.9,8.7-8.7,8.7C45.2,58.7,41.3,54.8,41.3,50 M88.5,46.5H74.2
	l2.8-2.8c1.4-1.4,1.4-3.6,0-4.9c-1.4-1.4-3.6-1.4-4.9,0l-8.7,8.7c-0.2,0.2-0.4,0.5-0.6,0.7c0,0.1-0.1,0.1-0.1,0.2
	c-0.1,0.3-0.2,0.5-0.3,0.8c0,0,0,0,0,0c-0.1,0.3-0.1,0.6,0,0.9c0,0.1,0,0.1,0,0.2c0,0.3,0.1,0.6,0.2,0.9c0,0,0,0,0,0c0,0,0,0,0,0
	c0.1,0.3,0.3,0.5,0.5,0.8c0.1,0.1,0.1,0.1,0.2,0.2c0,0.1,0.1,0.1,0.1,0.2l8.7,8.7c0.7,0.7,1.6,1,2.5,1c0.9,0,1.8-0.3,2.5-1
	c1.4-1.4,1.4-3.6,0-4.9l-2.8-2.8h14.3c1.9,0,3.5-1.6,3.5-3.5S90.4,46.5,88.5,46.5 M37.7,50.2c0-0.3,0-0.6,0-0.9l0,0
	c-0.1-0.3-0.2-0.6-0.3-0.8c0-0.1-0.1-0.1-0.1-0.2c-0.2-0.3-0.3-0.5-0.6-0.7L28,38.8c-1.4-1.4-3.6-1.4-4.9,0c-1.4,1.4-1.4,3.6,0,4.9
	l2.8,2.8H11.5C9.6,46.5,8,48.1,8,50c0,1.9,1.6,3.5,3.5,3.5h14.3L23,56.3c-1.4,1.4-1.4,3.6,0,4.9c0.7,0.7,1.6,1,2.5,1
	c0.9,0,1.8-0.3,2.5-1l8.7-8.7c0.1-0.1,0.1-0.1,0.1-0.2c0.1-0.1,0.1-0.1,0.2-0.2c0.2-0.2,0.3-0.5,0.5-0.8c0,0,0,0,0,0c0,0,0,0,0,0
	c0.1-0.3,0.2-0.6,0.2-0.9C37.7,50.4,37.7,50.3,37.7,50.2 M47.5,36.7c0.2,0.2,0.3,0.3,0.5,0.4c0.2,0.1,0.3,0.2,0.5,0.3
	c0,0,0.1,0,0.1,0.1c0.2,0.1,0.4,0.1,0.6,0.2c0,0,0.1,0,0.1,0c0.2,0,0.4,0.1,0.7,0.1h0c0,0,0,0,0,0c0.2,0,0.4,0,0.6-0.1
	c0,0,0.1,0,0.1,0c0.2,0,0.4-0.1,0.6-0.2h0c0,0,0,0,0,0c0.3-0.1,0.5-0.3,0.8-0.5c0.1,0,0.1-0.1,0.2-0.1c0.1-0.1,0.1-0.1,0.2-0.1
	l8.7-8.7c1.4-1.4,1.4-3.6,0-4.9c-1.4-1.4-3.6-1.4-4.9,0l-2.8,2.8V11.5C53.5,9.6,51.9,8,50,8c-1.9,0-3.5,1.6-3.5,3.5v14.3L43.7,23
	c-1.4-1.4-3.6-1.4-4.9,0c-1.4,1.4-1.4,3.6,0,4.9L47.5,36.7z M52.5,63.3c-0.1-0.1-0.1-0.1-0.2-0.1c-0.1-0.1-0.1-0.1-0.2-0.1
	c-0.2-0.2-0.5-0.3-0.8-0.5c0,0,0,0,0,0c0,0,0,0,0,0c-0.3-0.1-0.6-0.2-0.9-0.2c-0.1,0-0.2,0-0.2,0c-0.3,0-0.6,0-0.9,0c0,0,0,0-0.1,0
	c-0.3,0.1-0.5,0.2-0.8,0.3c-0.1,0-0.1,0.1-0.2,0.1c-0.3,0.2-0.5,0.3-0.7,0.6L38.8,72c-1.4,1.4-1.4,3.6,0,4.9c1.4,1.4,3.6,1.4,4.9,0
	l2.8-2.8v14.3c0,1.9,1.6,3.5,3.5,3.5c1.9,0,3.5-1.6,3.5-3.5V74.2l2.8,2.8c0.7,0.7,1.6,1,2.5,1c0.9,0,1.8-0.3,2.5-1
	c1.4-1.4,1.4-3.6,0-4.9L52.5,63.3z"/>
</svg>
