<?xml version="1.0" encoding="utf-8"?>
<!-- Generator: Adobe Illustrator 22.1.0, SVG Export Plug-In . SVG Version: 6.00 Build 0)  -->
<svg version="1.1" id="Layer_1" xmlns="http://www.w3.org/2000/svg" xmlns:xlink="http://www.w3.org/1999/xlink" x="0px" y="0px"
	 viewBox="0 0 100 100" style="enable-background:new 0 0 100 100;" xml:space="preserve">
<style type="text/css">
	.st0cargar2{fill:#005AA9;}
</style>
<g>
	<path class="st0cargar2" d="M70.5,31.1v26.4c0,9.7-6.9,18-16.1,20v16.3h-8.5V77.6c-9.4-2-16.3-10.3-16.3-20.1V31.1H70.5z M43.5,24.7h-7.1
		V9.6c0-1.7,1.5-3.3,3.2-3.3h0.6c1.8,0,3.3,1.6,3.3,3.3V24.7z M58.3,53.8l-7.1-4.3l2.2-8.1L42,51.6l6.8,4.3l-2.5,7.9L58.3,53.8z
		 M63.7,24.7h-7.1V9.6c0-1.7,1.5-3.3,3.3-3.3h0.6c1.7,0,3.2,1.6,3.2,3.3V24.7z"/>
</g>
</svg>
