<?xml version="1.0" encoding="utf-8"?>
<!-- Generator: Adobe Illustrator 22.1.0, SVG Export Plug-In . SVG Version: 6.00 Build 0)  -->
<svg version="1.1" id="Layer_1" xmlns="http://www.w3.org/2000/svg" xmlns:xlink="http://www.w3.org/1999/xlink" x="0px" y="0px"
	 viewBox="0 0 100 100" style="enable-background:new 0 0 100 100;" xml:space="preserve">
<style type="text/css">
	.st0cargar{fill:#005AA9;}
</style>
<g>
	<path class="st0cargar" d="M9.3,61.5h13.2V68H9.3c-1.6,0-3.1-1.4-3.1-3.1v-0.5C6.3,62.9,7.7,61.5,9.3,61.5z M9.3,79.9h13.2v6.5H9.3
		c-1.6,0-3.1-1.4-3.1-3V83C6.3,81.2,7.7,79.9,9.3,79.9z M18.1,45.6V13.2c0-2.2,1.8-4.1,4.1-4.1h49.3c2.2,0,4.1,1.8,4.1,4.1V21
		l7.5,0.9v15l-7.5,1v7.8c0,2.2-1.8,4.1-4.1,4.1H22.2C19.9,49.7,18.1,47.8,18.1,45.6z M25,43.4h43V15.3H25V43.4z M93.7,77.8H66.9
		c-1.7,7.5-8.5,13.1-16.4,13.1H27.9V57.1h22.5c7.9,0,14.7,5.5,16.4,12.9h26.9V77.8z M28.7,19h9v20.7h-9V19z"/>
</g>
</svg>
