<?xml version="1.0" encoding="utf-8"?>
<!-- Generator: Adobe Illustrator 22.1.0, SVG Export Plug-In . SVG Version: 6.00 Build 0)  -->
<svg version="1.1" id="Layer_1" xmlns="http://www.w3.org/2000/svg" xmlns:xlink="http://www.w3.org/1999/xlink" x="0px" y="0px"
	 viewBox="0 0 100 100" style="enable-background:new 0 0 100 100;" xml:space="preserve">
<path d="M23.8,76.3c-9.1-9.1-11.1-22.4-3-31.9c0.7-0.8,1.8-0.9,2.5-0.2l34,30.8c0.8,0.7,0.8,2-0.1,2.7
	C47.6,85.8,32.8,85.3,23.8,76.3 M91.8,42c-5.1-15.7-18-28.7-33.7-33.8c-1.8-0.6-3.8,0.4-4.4,2.2c-0.6,1.8,0.4,3.8,2.2,4.4
	c13.6,4.4,24.8,15.6,29.2,29.3c0.5,1.5,1.8,2.4,3.3,2.4c0.4,0,0.7-0.1,1.1-0.2C91.4,45.8,92.4,43.8,91.8,42 M53.1,20.6
	c-1.8-0.7-3.8,0.1-4.6,1.9c-0.7,1.8,0.1,3.8,1.9,4.6C61.3,31.6,68.5,38.7,73,49.6c0.6,1.3,1.9,2.2,3.2,2.2c0.4,0,0.9-0.1,1.3-0.3
	c1.8-0.7,2.6-2.8,1.9-4.6C74.3,34.4,65.7,25.8,53.1,20.6 M48.2,33c-1.7-0.9-3.8-0.3-4.8,1.3c-1,1.7-0.4,3.8,1.3,4.8
	c7.1,4,12.1,9,16.2,16.2c0.6,1.1,1.8,1.8,3,1.8c0.6,0,1.2-0.1,1.7-0.5c1.7-1,2.3-3.1,1.3-4.8C62.4,43.6,56.4,37.6,48.2,33
	 M50.7,49.3c-1.4-1.4-3.6-1.4-4.9,0l-5,5l5.2,4.7l4.8-4.8C52.1,52.9,52.1,50.7,50.7,49.3 M19.9,78.7c-0.7-0.9-2.1-0.9-2.8,0
	L8.4,89.2C7.5,90.3,8.3,92,9.8,92h17.5c1.5,0,2.3-1.7,1.4-2.8L19.9,78.7z"/>
</svg>
