<?xml version="1.0" encoding="utf-8"?>
<!-- Generator: Adobe Illustrator 22.1.0, SVG Export Plug-In . SVG Version: 6.00 Build 0)  -->
<svg version="1.1" id="Layer_1" xmlns="http://www.w3.org/2000/svg" xmlns:xlink="http://www.w3.org/1999/xlink" x="0px" y="0px"
	 viewBox="0 0 100 100" style="enable-background:new 0 0 100 100;" xml:space="preserve">
<style type="text/css">
	.st0ee{fill:#1D9549;}
</style>
<path class="st0ee" d="M-12.7,15.6v68.8h125.3V15.6H-12.7z M73.6,25.2c3.4,0,6.1,2.7,6.1,6.1c0,3.4-2.7,6.1-6.1,6.1
	c-3.4,0-6.1-2.7-6.1-6.1C67.5,28,70.3,25.2,73.6,25.2z M17.9,78.4H-7.1V22.2h25.1V78.4z M53.9,51.6h-19v3.7l-10.1-6.1l10.1-6.1v3.7
	h19V51.6z M105.2,70.2H91.1c-1.3,0-2.3-1-2.3-2.3V57.4l-9.9,6v11.4c0,1.3-1,2.3-2.3,2.3c-1.3,0-2.3-1-2.3-2.3V62
	c0-0.8,0.4-1.6,1.1-2l7.5-4.5l-6.2-8.3v2.1c0,1.3-1,2.3-2.3,2.3H61.7c-1.3,0-2.3-1-2.3-2.3c0-1.3,1-2.3,2.3-2.3h10.1v-8.4
	c0-0.1,0-0.1,0-0.2c0.6,0.1,1.1,0.2,1.7,0.2c3,0,5.6-1.8,6.7-4.4h11.3c0.7,0,1.4,0.3,1.9,0.9l6.7,8.7c0.8,1,0.6,2.5-0.4,3.3
	c-1,0.8-2.5,0.6-3.3-0.4l-6-7.8h-7.9l10.2,13.6l0,0c0.4,0.5,0.7,1,0.7,1.7v11.3h11.8c1.3,0,2.3,1,2.3,2.3
	C107.6,69.1,106.5,70.2,105.2,70.2z"/>
</svg>
