<?xml version="1.0" encoding="utf-8"?>
<!-- Generator: Adobe Illustrator 22.1.0, SVG Export Plug-In . SVG Version: 6.00 Build 0)  -->
<svg version="1.1" id="Layer_1" xmlns="http://www.w3.org/2000/svg" xmlns:xlink="http://www.w3.org/1999/xlink" x="0px" y="0px"
	 viewBox="0 0 100 100" style="enable-background:new 0 0 100 100;" xml:space="preserve">
<style type="text/css">
	.st0ee2{fill:#1D9549;}
</style>
<g>
	<path class="st0ee2" d="M94.6,5.5v89.1H64.7l7.9-6.2v-35h-8.6c-2.5,0-3.4-0.6-5.1-3.3l-2.3-3.9l-4.4,11.1l13.3,30.2h-4.9
		c-1.4,0-2.6-0.9-3.1-2L46.7,61.5c-0.1-0.4-0.5-0.7-1-0.7c-0.6,0-0.9,0.5-0.9,1.1v11.3c0,1.5-1.2,2.5-2.6,2.5H25v-3.2l2.7-2.1h10.6
		V59.8c0-1.4,0.1-2.6,0.9-4.2l6.9-16h-3.9l-5.7,9.1c-1.1,1.7-1.7,2.5-3.2,2.5s-2.8-1.7-1.8-3.3l5.9-9.6c1.5-2.5,3.1-3.8,7.1-3.8H51
		c4.1,0,6.3,1.6,8,4.6l5.3,9.1h8.3V13.5H28.3v53l-5.4,4.2v7.3h5.4v10.5l-8,6.2H5.4V5.5H94.6z M54.9,32.8c-0.5-1.1-0.9-4.9-0.9-7.1
		c0-1,0.2-1.5,0.6-1.8c1-1,2.5-1.1,3.8-1.1c1.4,0,2.6,0.2,3.7,1c0.5,0.4,0.5,1.1,0.5,2.2c0,2.2,0.1,5.9-0.6,6.9
		c-0.4,0.5-1.5,1.2-3.7,1.2C56.5,34,55.2,33.4,54.9,32.8z"/>
</g>
</svg>
