<?xml version="1.0" encoding="utf-8"?>
<!-- Generator: Adobe Illustrator 22.1.0, SVG Export Plug-In . SVG Version: 6.00 Build 0)  -->
<svg version="1.1" id="Layer_1" xmlns="http://www.w3.org/2000/svg" xmlns:xlink="http://www.w3.org/1999/xlink" x="0px" y="0px"
	 viewBox="0 0 100 100" style="enable-background:new 0 0 100 100;" xml:space="preserve">
<style type="text/css">
	.st0ew2{fill-rule:evenodd;clip-rule:evenodd;fill:#1D9549;}
</style>
<g>
	<path class="st0ew2" d="M51.6,6.4h-64.8c-3.1,0-5.7,2.6-5.7,5.9v75.2c0,3.3,2.5,5.9,5.7,5.9h64.8c3.1,0,5.7-2.6,5.7-5.9V12.3
		C57.3,9.1,54.7,6.4,51.6,6.4z M27.9,12.6c1.5,0,2.8,1.3,2.8,2.8c0,1.6-1.3,2.8-2.8,2.8c-1.6,0-2.8-1.3-2.8-2.8
		C25.1,13.9,26.4,12.6,27.9,12.6z M12.3,33.9h5.9v-5.4l3-5.7v-1.6h-1.5c0,0-3,3.9-3.4,4.4c-0.5,0.6-1.4,1.1-2.4,0.4
		c-1-0.8-0.5-2.3-0.5-2.3l4.8-5.5h6.9l6.6,6.1c0,0,4.5-0.1,5.1,0c0.6,0.1,1.3,0.1,1.3,1.5c0,1.5-1,1.5-1,1.5h-6.4l-3.2-3.6l-2.4,4.7
		c0,0,4.8,8.9,6.1,11.5c1.4,2.6-0.5,2.7-0.5,2.7h-1.9l-6.1-12.3h-1.1c0,0,0,4,0,5.7c0,1.7-1.6,1.6-1.6,1.6H9.7
		C9.6,34.7,12.3,33.9,12.3,33.9z M-14.8,88.3V39.4c0,0,21.6-6.2,34.5,16.9c0,0-9.7-7.4-18.3-2.9c-6.3,3.3-8,10.6-4.7,18.5
		C0.1,79.7,6.4,81,6.4,81s0.4,0.3,0.4,0.7s-4.7,6.6-4.7,6.6H-14.8z M53.2,88.3l-47.7,0l32.8-47l15,0L53.2,88.3z"/>
	<path class="st0ew2" d="M113.2,6.6H66.1c-3.1,0-5.7,2.6-5.7,5.9v75.1c0,3.3,2.5,5.9,5.7,5.9h47.1c3.1,0,5.7-2.6,5.7-5.9V12.6
		C118.9,9.3,116.3,6.6,113.2,6.6z M107.4,58l-10.8-9.6l0,24.2h-6.2h-6.1l0-24.2L73.6,58V42.4l16.8-14.9l17,14.9V58z"/>
</g>
</svg>
