<?xml version="1.0" encoding="utf-8"?>
<!-- Generator: Adobe Illustrator 22.1.0, SVG Export Plug-In . SVG Version: 6.00 Build 0)  -->
<svg version="1.1" id="Layer_1" xmlns="http://www.w3.org/2000/svg" xmlns:xlink="http://www.w3.org/1999/xlink" x="0px" y="0px"
	 viewBox="0 0 100 100" style="enable-background:new 0 0 100 100;" xml:space="preserve">
<style type="text/css">
	.st0ew{fill:#1D9549;}
</style>
<path class="st0ew" d="M117.4,6H-17.4c-2.6,0-4.8,2.2-4.8,4.8v78.5c0,2.6,2.2,4.8,4.8,4.8h134.8c2.6,0,4.8-2.2,4.8-4.8V10.8
	C122.2,8.1,120,6,117.4,6z M41.2,27.1c0.8-0.8,1.9-1.3,3-1.3c1.2,0,2.3,0.4,3.2,1.3c0.3,0.3,0.3,0.7,0.3,1.7c0,1.9-0.1,5-0.5,5.9
	c-0.3,0.5-1.2,1.1-2.8,1.1c-1.6,0-2.7-0.6-2.9-1.1c-0.5-0.9-0.7-4.1-0.7-6C40.7,27.8,40.8,27.5,41.2,27.1z M20.9,27
	c0.8-0.8,1.9-1.3,3-1.3s2.2,0.4,3,1.3c0.4,0.3,0.4,0.8,0.4,1.7c0,1.8-0.2,4.8-0.5,5.8c-0.3,0.4-1.2,1-2.8,1c-1.5,0-2.5-0.6-2.8-1
	c-0.5-0.9-0.7-4.1-0.7-5.9C20.5,27.8,20.6,27.4,20.9,27z M56.6,80.9h-3.4c-1.1,0-2-0.7-2.3-1.7l-4.8-12.9l-3.1-0.5l-0.5,3.7
	c-0.2,1.1-0.9,1.8-1.9,1.8h-8.1l-1.3-4h6.4l0.4-2.3l-3.4-0.6c-0.7-0.2-1.2-0.7-1-1.5L36,53l2.5-11.5c-2.1,0-3.7,1.8-4.3,4.8
	l-1.1,5.1c-0.3,1.3-1.1,1.8-1.9,1.8h-0.1c-0.5,0-1.2-0.2-1.6-0.3l-3.4-1.1l-0.7,4.8L34.2,81h-3.5c-0.9,0-1.9-0.7-2.3-1.7l-7.8-19.4
	c-0.3-0.7-1.3-0.5-1.3,0.3v9.3c0,1-0.8,1.8-1.9,1.8H4.6v-2.3l2.1-1.7h7.7v-9.9c0-0.7,0.1-1.4,0.3-2.3l2.9-13.5
	c-2.1,0-3.8,1.8-4.3,4.8l-1.1,5.1c-0.3,1.3-1.1,1.8-1.9,1.8c-1.2,0-2.2-1.2-1.8-2.5l1-5c1.3-5.9,4.8-8.6,11.5-8.6
	c4.5,0,7.2,2.1,6.3,6.9l-0.6,3.6l3.2,0.9l0.6-2.9c1.3-5.9,4.8-8.6,11.4-8.6c3.9,0,7.3,2.1,6.3,6.9l-0.9,4.1l7.9,2.3
	c0.9,0.3,1.6,1.1,1.6,2c0,1.3-0.9,2.2-1.9,2.2c-0.5,0-1.2-0.2-1.6-0.3l-6.4-1.8L56.6,80.9z M97.1,55.1l-9-9v28.7H76.2V46l-9.1,9.1
	V42.4L82,27.5L97,42.4L97.1,55.1L97.1,55.1z"/>
</svg>
