<?xml version="1.0" encoding="utf-8"?>
<!-- Generator: Adobe Illustrator 22.1.0, SVG Export Plug-In . SVG Version: 6.00 Build 0)  -->
<svg version="1.1" id="Layer_1" xmlns="http://www.w3.org/2000/svg" xmlns:xlink="http://www.w3.org/1999/xlink" x="0px" y="0px"
	 viewBox="0 0 100 100" style="enable-background:new 0 0 100 100;" xml:space="preserve">
<path d="M91.7,29c0.2,0.2,0.3,0.4,0.3,0.7v31.2c-1-0.2-2.1-0.3-3.5-0.3c-4.1,0-6.3,1.2-8.1,2.2C78.9,63.5,78,64,75.6,64
	c-2.3,0-3.3-0.5-4.7-1.3c-1.8-1-4-2.2-8.1-2.2c-4.1,0-6.3,1.2-8.1,2.2C53.3,63.5,52.3,64,50,64c-2.3,0-3.3-0.5-4.7-1.3
	c-1.4-0.8-3.1-1.7-5.8-2v-31c0-0.2,0.1-0.5,0.3-0.7L65.5,8.1C65.6,8,65.9,8,66,8.1L91.7,29 M88.5,81.5c-4.1,0-6.3,1.2-8.1,2.2
	C78.9,84.5,78,85,75.6,85c-2.3,0-3.3-0.5-4.7-1.3c-1.8-1-4-2.2-8.1-2.2c-4.1,0-6.3,1.2-8.1,2.2C53.3,84.5,52.3,85,50,85
	c-2.3,0-3.3-0.5-4.7-1.3c-1.8-1-4-2.2-8.1-2.2c-4.1,0-6.3,1.2-8.1,2.2c-1.5,0.8-2.4,1.3-4.7,1.3c-2.3,0-3.3-0.5-4.7-1.3
	c-1.8-1-4-2.2-8.1-2.2C9.6,81.5,8,83.1,8,85c0,1.9,1.6,3.5,3.5,3.5c2.3,0,3.3,0.5,4.7,1.3c1.8,1,4,2.2,8.1,2.2s6.3-1.2,8.1-2.2
	c1.5-0.8,2.4-1.3,4.7-1.3c2.3,0,3.3,0.5,4.7,1.3c1.8,1,4,2.2,8.1,2.2c4.1,0,6.3-1.2,8.1-2.2c1.5-0.8,2.4-1.3,4.7-1.3
	c2.3,0,3.3,0.5,4.7,1.3c1.8,1,4,2.2,8.1,2.2c4.1,0,6.3-1.2,8.1-2.2c1.5-0.8,2.4-1.3,4.7-1.3c1.9,0,3.5-1.6,3.5-3.5
	C92,83.1,90.4,81.5,88.5,81.5 M88.5,67.5c-4.1,0-6.3,1.2-8.1,2.2C78.9,70.5,78,71,75.6,71c-2.3,0-3.3-0.5-4.7-1.3
	c-1.8-1-4-2.2-8.1-2.2s-6.3,1.2-8.1,2.2C53.3,70.5,52.3,71,50,71c-2.3,0-3.3-0.5-4.7-1.3c-1.8-1-4-2.2-8.1-2.2
	c-4.1,0-6.3,1.2-8.1,2.2c-1.5,0.8-2.4,1.3-4.7,1.3c-2.3,0-3.3-0.5-4.7-1.3c-1.8-1-4-2.2-8.1-2.2C9.6,67.5,8,69.1,8,71
	c0,1.9,1.6,3.5,3.5,3.5c2.3,0,3.3,0.5,4.7,1.3c1.8,1,4,2.2,8.1,2.2c4.1,0,6.3-1.2,8.1-2.2c1.5-0.8,2.4-1.3,4.7-1.3
	c2.3,0,3.3,0.5,4.7,1.3c1.8,1,4,2.2,8.1,2.2c4.1,0,6.3-1.2,8.1-2.2c1.5-0.8,2.4-1.3,4.7-1.3c2.3,0,3.3,0.5,4.7,1.3
	c1.8,1,4,2.2,8.1,2.2c4.1,0,6.3-1.2,8.1-2.2c1.5-0.8,2.4-1.3,4.7-1.3c1.9,0,3.5-1.6,3.5-3.5C92,69.1,90.4,67.5,88.5,67.5"/>
</svg>
