<?xml version="1.0" encoding="utf-8"?>
<!-- Generator: Adobe Illustrator 22.1.0, SVG Export Plug-In . SVG Version: 6.00 Build 0)  -->
<svg version="1.1" id="Layer_1" xmlns="http://www.w3.org/2000/svg" xmlns:xlink="http://www.w3.org/1999/xlink" x="0px" y="0px"
	 viewBox="0 0 100 100" style="enable-background:new 0 0 100 100;" xml:space="preserve">
<path d="M83.1,89c0.3,0.6-0.1,1.3-0.8,1.3H8.9c-0.6,0-1.1-0.7-0.8-1.3l33.2-69.5c1.7-3.6,6.9-3.6,8.6,0L83.1,89z M91.3,49.6
	c-0.8-1.9-2.3-3.4-4.2-4.1c-1.9-0.8-4.1-0.8-6.1,0c-1.3,0.6-2,2.1-1.4,3.4c0.6,1.3,2.1,2,3.4,1.4c0.7-0.3,1.4-0.3,2,0
	c0.6,0.3,1.1,0.7,1.3,1.3c0.8,1.9-0.2,4.2-2.2,5c-1.4,0.6-2.9,0.6-4.3,0c-1.3-0.5-2.4-1.6-3-3L65,28.7c-0.6-1.3-2.2-1.8-3.5-1.2
	c-1.3,0.6-1.9,2.2-1.2,3.5l11.9,24.8c1.1,2.6,3.1,4.6,5.7,5.7c1.3,0.5,2.7,0.8,4.1,0.8c1.4,0,2.9-0.3,4.2-0.8
	C91,59.5,93.2,54.2,91.3,49.6 M61.3,19.6l3.5,2.1c0.6,0.3,1.3,0.3,1.8,0l3.5-2.1c0.5-0.3,0.8-0.9,0.8-1.5v-4.5
	c0-0.6-0.3-1.2-0.8-1.5L66.6,10c-0.6-0.3-1.3-0.3-1.8,0l-3.5,2.1c-0.5,0.3-0.8,0.9-0.8,1.5v4.5C60.5,18.7,60.8,19.3,61.3,19.6
	 M71.2,29l3.5,6.1c0.3,0.5,0.9,0.9,1.5,0.9h7c0.6,0,1.2-0.3,1.5-0.9l3.5-6.1c0.3-0.5,0.3-1.2,0-1.7l-3.5-6.1
	c-0.3-0.5-0.9-0.9-1.5-0.9h-7c-0.6,0-1.2,0.3-1.5,0.9l-3.5,6.1C70.9,27.8,70.9,28.5,71.2,29"/>
</svg>
