<?xml version="1.0" encoding="utf-8"?>
<!-- Generator: Adobe Illustrator 22.1.0, SVG Export Plug-In . SVG Version: 6.00 Build 0)  -->
<svg version="1.1" id="Layer_1" xmlns="http://www.w3.org/2000/svg" xmlns:xlink="http://www.w3.org/1999/xlink" x="0px" y="0px"
	 viewBox="0 0 100 100" style="enable-background:new 0 0 100 100;" xml:space="preserve">
<g>
	<path d="M50,39.5c-10.5,0-18.4,7.1-18.4,16.6c0,1.4,1.2,2.6,2.6,2.6c1.4,0,2.6-1.2,2.6-2.6c0-4.2,2.4-7.7,6.1-9.7v15.8v27.1
		c0,1.4,1.2,2.6,2.6,2.6s2.6-1.2,2.6-2.6V67.5h3.5v21.9c0,1.4,1.2,2.6,2.6,2.6c1.4,0,2.6-1.2,2.6-2.6V64.2v-1.9V46.4
		c3.7,2,6.1,5.5,6.1,9.7c0,1.4,1.2,2.6,2.6,2.6s2.6-1.2,2.6-2.6C68.4,46.6,60.5,39.5,50,39.5z"/>
	<circle cx="50.1" cy="30.8" r="5.2"/>
	<path d="M89.8,30.5L52.2,8.6c-1.4-0.8-3-0.8-4.4,0L10.2,30.5C8.9,31.3,8,32.7,8,34.3v53.3C8,90,10,92,12.4,92c2.4,0,4.4-2,4.4-4.4
		V36.8L50,17.5l33.2,19.3v50.8c0,2.4,2,4.4,4.4,4.4c2.4,0,4.4-2,4.4-4.4V34.3C92,32.7,91.1,31.3,89.8,30.5z"/>
</g>
</svg>
