<?xml version="1.0" encoding="utf-8"?>
<!-- Generator: Adobe Illustrator 22.1.0, SVG Export Plug-In . SVG Version: 6.00 Build 0)  -->
<svg version="1.1" id="Layer_1" xmlns="http://www.w3.org/2000/svg" xmlns:xlink="http://www.w3.org/1999/xlink" x="0px" y="0px"
	 viewBox="0 0 100 100" style="enable-background:new 0 0 100 100;" xml:space="preserve">
<style type="text/css">
	.st0tsunami{fill:#E2CD3A;}
</style>
<g>
	<polygon class="st0tsunami" points="50,12.5 6.7,87.5 93.3,87.5 	"/>
	<path d="M50,89.8c-13.9,0-27.9,0-41.8,0c-3.9,0-4.8-1.5-2.8-5C19.2,61,33,37.2,46.8,13.4c0.3-0.4,0.5-0.9,0.8-1.3
		c1.8-2.7,3.7-2.6,5.4,0.3C63.8,31.2,74.7,50.1,85.6,69c3,5.3,6.1,10.6,9.2,15.9c1.8,3.2,0.7,5-2.9,5C77.9,89.9,64,89.9,50,89.8
		L50,89.8z M65.2,60.3c-0.5-0.1-0.7-0.1-0.9-0.2c-2.6-0.6-4.8-2.2-7.6-2.2c-3.2,0-5.7,1.1-7,4c-1.3,2.9-1.3,5.8,0.8,8.5
		c1.7,2.3,4,3.7,6.5,4.9c7.6,3.4,15.4,2.8,23.3,1.6c3.9-0.6,3.8-0.8,1.8-4.1C73.5,57.9,65,43.1,56.4,28.3c-2-3.4-4-6.9-6.1-10.4
		c-0.3,0.4-0.5,0.6-0.6,0.8C43.5,29.5,37.2,40.3,31,51.1c-0.3,0.5-0.7,1.1-0.3,1.6c0.5,0.7,1.2,0.1,1.7-0.1
		c5.3-2.1,10.7-3.4,16.5-3.3C56.2,49.5,62.9,53.9,65.2,60.3"/>
</g>
</svg>
