<?xml version="1.0" encoding="utf-8"?>
<!-- Generator: Adobe Illustrator 22.1.0, SVG Export Plug-In . SVG Version: 6.00 Build 0)  -->
<svg version="1.1" id="Layer_1" xmlns="http://www.w3.org/2000/svg" xmlns:xlink="http://www.w3.org/1999/xlink" x="0px" y="0px"
	 viewBox="0 0 100 100" style="enable-background:new 0 0 100 100;" xml:space="preserve">
<path d="M91.8,42c0.1,0.1,0.2,0.2,0.2,0.3v18.6c-1-0.2-2.1-0.3-3.5-0.3c-0.1,0-0.2,0-0.3,0c-0.3,0-0.6,0-0.8,0
	c-0.2,0-0.4,0.1-0.6,0.1c-1.2,0.2-2,0.6-3,1.2c-1.8,1-4,2.2-8.1,2.2c-0.4,0-0.8,0-1.2,0c-3.4-0.2-5.3-1.3-6.9-2.2
	c-1.4-0.8-2.4-1.3-4.7-1.3c-2.3,0-3.3,0.5-4.7,1.3c-1.8,1-4,2.2-8.1,2.2h0h0h0c0,0,0,0,0,0c-9.3,0-17.5-8.2-17.5-17.5
	c0-9.5,7.5-17.3,16.6-17.3c2.7,0,5.4,0.7,7.8,2c1.7,0.9,2.3,3.1,1.4,4.8c-0.9,1.7-3.1,2.3-4.8,1.4c-1.4-0.8-2.9-1.1-4.4-1.1
	c-5.3,0-9.6,4.6-9.6,10.3c0,5.5,5,10.5,10.5,10.5c2.3,0,3.3-0.5,4.7-1.3c1.8-1,4-2.2,8.1-2.2c0.4,0,0.8,0,1.2,0V42.3
	c0-0.1,0.1-0.2,0.2-0.3l13.6-9.4c0.2-0.1,0.3-0.1,0.5,0L91.8,42 M88.5,81.5c-4.1,0-6.3,1.2-8.1,2.2C78.9,84.5,78,85,75.6,85
	c-2.3,0-3.3-0.5-4.7-1.3c-1.8-1-4-2.2-8.1-2.2c-4.1,0-6.3,1.2-8.1,2.2C53.3,84.5,52.3,85,50,85c-2.3,0-3.3-0.5-4.7-1.3
	c-1.8-1-4-2.2-8.1-2.2c-4.1,0-6.3,1.2-8.1,2.2c-1.5,0.8-2.4,1.3-4.7,1.3c-2.3,0-3.3-0.5-4.7-1.3c-1.8-1-4-2.2-8.1-2.2
	C9.6,81.5,8,83.1,8,85c0,1.9,1.6,3.5,3.5,3.5c2.3,0,3.3,0.5,4.7,1.3c1.8,1,4,2.2,8.1,2.2c4.1,0,6.3-1.2,8.1-2.2
	c1.5-0.8,2.4-1.3,4.7-1.3c2.3,0,3.3,0.5,4.7,1.3c1.8,1,4,2.2,8.1,2.2c4.1,0,6.3-1.2,8.1-2.2c1.5-0.8,2.4-1.3,4.7-1.3
	c2.3,0,3.3,0.5,4.7,1.3c1.8,1,4,2.2,8.1,2.2c4.1,0,6.3-1.2,8.1-2.2c1.5-0.8,2.4-1.3,4.7-1.3c1.9,0,3.5-1.6,3.5-3.5
	C92,83.1,90.4,81.5,88.5,81.5 M88.5,67.5c-4.1,0-6.3,1.2-8.1,2.2C78.9,70.5,78,71,75.6,71c-2.3,0-3.3-0.5-4.7-1.3
	c-1.8-1-4-2.2-8.1-2.2c-4.1,0-6.3,1.2-8.1,2.2C53.3,70.5,52.3,71,50,71c-2.3,0-3.3-0.5-4.7-1.3c-1.8-1-4-2.2-8.1-2.2
	c-4.1,0-6.3,1.2-8.1,2.2c-1.5,0.8-2.4,1.3-4.7,1.3c-2.3,0-3.3-0.5-4.7-1.3c-1.8-1-4-2.2-8.1-2.2C9.6,67.5,8,69.1,8,71
	c0,1.9,1.6,3.5,3.5,3.5c2.3,0,3.3,0.5,4.7,1.3c1.8,1,4,2.2,8.1,2.2c4.1,0,6.3-1.2,8.1-2.2c1.5-0.8,2.4-1.3,4.7-1.3
	c2.3,0,3.3,0.5,4.7,1.3c1.8,1,4,2.2,8.1,2.2c4.1,0,6.3-1.2,8.1-2.2c1.5-0.8,2.4-1.3,4.7-1.3c2.3,0,3.3,0.5,4.7,1.3
	c1.8,1,4,2.2,8.1,2.2c4.1,0,6.3-1.2,8.1-2.2c1.5-0.8,2.4-1.3,4.7-1.3c1.9,0,3.5-1.6,3.5-3.5C92,69.1,90.4,67.5,88.5,67.5 M15.2,62.3
	c0.5,0,1.1-0.1,1.6-0.4c1.7-0.9,2.4-3,1.5-4.7c-2.1-4.1-3.3-8.7-3.3-13.4C15,27.9,28,15,43.9,15c7,0,13.9,2.8,19.5,7.9
	c1.4,1.3,3.6,1.2,4.9-0.2c1.3-1.4,1.2-3.6-0.2-4.9C61.2,11.4,52.6,8,43.9,8C24.1,8,8,24.1,8,43.8c0,5.8,1.4,11.5,4.1,16.6
	C12.7,61.6,13.9,62.3,15.2,62.3"/>
</svg>
