<?xml version="1.0" encoding="utf-8"?>
<!-- Generator: Adobe Illustrator 22.1.0, SVG Export Plug-In . SVG Version: 6.00 Build 0)  -->
<svg version="1.1" id="Layer_1" xmlns="http://www.w3.org/2000/svg" xmlns:xlink="http://www.w3.org/1999/xlink" x="0px" y="0px"
	 viewBox="0 0 100 100" style="enable-background:new 0 0 100 100;" xml:space="preserve">
<style type="text/css">
	.st0ve2{fill:#1D9549;}
</style>
<path class="st0ve2" d="M87.5,36.5h-5.8v-6.9h5.8V36.5z M77.1,16.6h-5.8v6.9h5.8V16.6z M87.5,16.6h-5.8v6.9h5.8V16.6z M101.6,4.5v91.1
	c0,3.3-2.7,6-6,6H4.5c-3.3,0-6-2.7-6-6V4.5c0-3.3,2.7-6,6-6h91.1C98.8-1.6,101.6,1.2,101.6,4.5z M56.6,48.8c0,1.8,1.4,3.2,3.2,3.2
	c1.8,0,3.2-1.4,3.2-3.2c0-1.8-1.4-3.2-3.2-3.2C58,45.6,56.6,47.1,56.6,48.8z M50.4,92.2c-20.7-2.1-34.7-12-34.7-21.1
	c0-9.2,10-12.3,13.5-12.2c5.5,0.1,11.3,4.3,11.3,4.3c-6.3-20-32.5-15.7-32.5-15.7v44.8H50.4z M71.3,60.6c0-1.6-0.9-1.6-1.5-1.7
	c-0.6-0.1-5.8,0-5.8,0L56.6,52h-7.8l-5.4,6.2c0,0-0.6,1.7,0.6,2.6c1.1,0.9,2.1,0.2,2.7-0.4s3.9-5,3.9-5h1.7v1.9l-3.4,6.4v6.2h-6.6
	c0,0-3.1,0.9-3,4.1h11.7c0,0,1.9,0.2,1.9-1.8s0-6.5,0-6.5h1.2l6.9,13.9h2.2c0,0,2.1-0.2,0.6-3.1c-1.5-2.9-6.9-13-6.9-13l2.7-5.3
	l3.6,4.1h7.2C70.1,62.3,71.3,62.3,71.3,60.6z M91.9,12.3H67.5V52h14.3v-9.8h5.8V52h4.4V12.3z M77.1,29.5h-5.8v6.9h5.8V29.5z"/>
</svg>
