<?xml version="1.0" encoding="utf-8"?>
<!-- Generator: Adobe Illustrator 22.1.0, SVG Export Plug-In . SVG Version: 6.00 Build 0)  -->
<svg version="1.1" id="Layer_1" xmlns="http://www.w3.org/2000/svg" xmlns:xlink="http://www.w3.org/1999/xlink" x="0px" y="0px"
	 viewBox="0 0 100 100" style="enable-background:new 0 0 100 100;" xml:space="preserve">
<style type="text/css">
	.st0ve{fill:#1D9549;}
</style>
<path class="st0ve" d="M95.5-1.6H4.5c-3.3,0-6,2.7-6,6v91.1c0,3.3,2.7,6,6,6h91.1c3.3,0,6-2.7,6-6V4.5C101.6,1.2,98.8-1.6,95.5-1.6z
	 M37.7,17.4c0.9-0.8,2-1.2,3.2-1.2c1.2,0,2.4,0.3,3.4,1.2c0.3,0.4,0.3,0.9,0.3,1.8c0,2-0.1,5.3-0.6,6.2c-0.2,0.4-1.1,1.1-3,1.1
	c-1.7,0-2.8-0.7-3.1-1.1c-0.4-0.9-0.7-4.4-0.7-6.3C37.2,18.1,37.4,17.8,37.7,17.4z M76,89.9H24V82h16.3V72h8.8
	c-0.9-0.3-1.8-1.1-1.9-2.1l-1.2-10L34,52c-1.2-0.7-1.8-1.8-1.6-3.3l2.2-13.9l-3.1,0.8l-1.8,10.2c-0.3,1.5-1.2,2.2-2.7,2.2
	c-1.3,0-2-1.4-1.7-3.3l1.6-10c0.5-2.4,1.6-3.4,4.5-4.1l7.4-1.9c0.9-0.2,1.7-0.3,2.1-0.3c3,0,4.5,2.2,3.9,5.8L44,39.9l6.5,1.8
	c1.3,0.4,1.7,1.4,1.7,2.2c0,1.2-0.8,2.2-2.1,2.2c-0.2,0-0.7-0.1-1-0.2l-5.8-1.5l-0.9,5.3l6.8,4.7c1.1,0.7,1.7,1.7,1.8,2.8L52.6,72
	h3.6V61.6H76V89.9z M29.2,70.3L37.9,57l4.7,2.5l-11,16.9l-1.8-1.2C28.1,73.8,27.8,72.4,29.2,70.3z"/>
</svg>
