<?xml version="1.0" encoding="utf-8"?>
<!-- Generator: Adobe Illustrator 22.1.0, SVG Export Plug-In . SVG Version: 6.00 Build 0)  -->
<svg version="1.1" id="Layer_1" xmlns="http://www.w3.org/2000/svg" xmlns:xlink="http://www.w3.org/1999/xlink" x="0px" y="0px"
	 viewBox="0 0 100 100" style="enable-background:new 0 0 100 100;" xml:space="preserve">
<path d="M91.7,90.5c0.5,0.5,0.2,1.5-0.6,1.5H8.9c-0.8,0-1.2-0.9-0.6-1.5l32.5-30.7c1.2-1.2,3-1.4,4.3-0.4c1.4,1,3.1,1.6,4.9,1.6
	c1.8,0,3.5-0.6,4.9-1.6c1.3-0.9,3.2-0.7,4.3,0.4L91.7,90.5 M51.7,50.9c0,1.4,1.2,2.6,2.6,2.6c1.4,0,2.6-1.2,2.6-2.6l0-14.1
	c-0.1-2.9,0.8-5.6,2.8-7.7c1.9-2.1,4.6-3.4,7.4-3.5c2.1-0.1,4.2,0.6,5.8,2.1c1.6,1.4,2.5,3.4,2.6,5.6c0.1,1.6-0.5,3.1-1.5,4.3
	c-1.1,1.2-2.5,1.9-4.1,1.9c-2.4,0.1-4.3-1.7-4.4-4c-0.1-1.4-1.3-2.6-2.8-2.5c-1.4,0.1-2.6,1.3-2.5,2.8c0.3,5.2,4.7,9.3,9.9,9
	c3-0.1,5.7-1.4,7.7-3.7c2-2.2,3-5.1,2.9-8.1c-0.4-7.3-6.6-13-14-12.6c-4.3,0.2-8.2,2.1-11.1,5.2c-2.9,3.2-4.3,7.3-4.1,11.4V50.9z
	 M32.8,28.8c1.4,0.1,2.7-1,2.7-2.5c0.1-1.4-1-2.7-2.5-2.8c-2.4-0.1-4.2-2.2-4.1-4.5c0.2-3.3,3-5.9,6.3-5.7c4.5,0.2,8,4.1,7.7,8.8
	v28.8c0,1.4,1.2,2.6,2.6,2.6s2.6-1.2,2.6-2.6l0-28.7C48.6,14.8,42.9,8.4,35.5,8c-6.2-0.3-11.5,4.5-11.8,10.7
	C23.5,24,27.6,28.5,32.8,28.8"/>
</svg>
