<?xml version="1.0" encoding="utf-8"?>
<!-- Generator: Adobe Illustrator 22.1.0, SVG Export Plug-In . SVG Version: 6.00 Build 0)  -->
<svg version="1.1" id="Layer_1" xmlns="http://www.w3.org/2000/svg" xmlns:xlink="http://www.w3.org/1999/xlink" x="0px" y="0px"
	 viewBox="0 0 100 100" style="enable-background:new 0 0 100 100;" xml:space="preserve">
<style type="text/css">
	.st0w2{fill:#EC1C24;}
</style>
<path class="st0w2" d="M50,11.5c-21.2,0-38.5,17.2-38.5,38.5S28.8,88.5,50,88.5c21.2,0,38.5-17.2,38.5-38.5S71.2,11.5,50,11.5
	 M50,79.7c-2.9,0-5.2-2.3-5.2-5.2c0-2.9,2.3-5.2,5.2-5.2c2.9,0,5.2,2.3,5.2,5.2C55.2,77.4,52.9,79.7,50,79.7 M55.2,57
	c0,2.9-2.3,5.2-5.2,5.2c-2.9,0-5.2-2.3-5.2-5.2V25.5c0-2.9,2.3-5.2,5.2-5.2c1.5,0,2.8,0.6,3.7,1.5c0.9,0.9,1.5,2.3,1.5,3.7V57z"/>
</svg>
