<?xml version="1.0" encoding="utf-8"?>
<!-- Generator: Adobe Illustrator 22.1.0, SVG Export Plug-In . SVG Version: 6.00 Build 0)  -->
<svg version="1.1" id="Layer_1" xmlns="http://www.w3.org/2000/svg" xmlns:xlink="http://www.w3.org/1999/xlink" x="0px" y="0px"
	 viewBox="0 0 100 100" style="enable-background:new 0 0 100 100;" xml:space="preserve">
<style type="text/css">
	.st0w{fill:#FFF100;}
	.st1w{fill:#231F20;}
</style>
<g>
	<path class="st0w" d="M5.3,86.3c0-0.6,0.2-1.2,0.6-2L47,12.5c0.6-1.1,1.7-1.7,2.8-1.7c1.1,0,2.2,0.6,2.8,1.7l41.6,71.8
		c0.4,0.6,0.4,1.4,0.4,1.8c0,1.7-1.1,3.1-3.3,3.1H8.9C6.6,89.2,5.3,88,5.3,86.3z"/>
	<path class="st1w" d="M50,63.7c-2.8,0-5.1-2.3-5.1-5.1V44.1c0-2.6,2.2-4.9,5.1-4.9c3,0,5.2,2.3,5.2,4.9v14.5
		C55.2,61.4,53,63.7,50,63.7z M55.3,74.4c0-2.8-2.3-5.2-5.2-5.2c-3,0-5.3,2.3-5.3,5.2s2.3,5.2,5.3,5.2C53,79.6,55.3,77.3,55.3,74.4z
		"/>
</g>
</svg>
